<?xml version="1.0" encoding="UTF-8"?>
<svg width="239px" height="77px" viewBox="0 0 239 77" version="1.1" xmlns="http://www.w3.org/2000/svg" xmlns:xlink="http://www.w3.org/1999/xlink">
    <!-- Generator: Sketch 47.1 (45422) - http://www.bohemiancoding.com/sketch -->
    <title>stafftrack-login-logo</title>
    <desc>Created with Sketch.</desc>
    <defs></defs>
    <g id="StaffTrack" stroke="none" stroke-width="1" fill="none" fill-rule="evenodd">
        <g id="StaffTrack-Login" transform="translate(-393.000000, -70.000000)">
            <g id="stafftrack-login-logo" transform="translate(393.000000, 70.000000)">
                <g id="Logos/staff-management-logo-white" transform="translate(0.000000, 0.562500)">
                    <path d="M23.7513263,38.247825 L15.1607911,38.247825 L15.1607911,35.5958544 C15.1607911,30.8026044 14.8567113,28.6601926 12.0268615,28.6601926 C9.8040493,28.6601926 8.89405399,30.0880897 8.89405399,33.8622221 L8.89405399,35.7996779 C8.89405399,37.6363544 10.207993,39.6757221 12.6338991,42.3276926 L19.9104953,50.0786485 C22.841331,53.2413103 24.4582277,56.0971044 24.4582277,59.2586338 L24.4582277,63.3385015 C24.4582277,71.8039721 20.4154249,75.8838397 12.0268615,75.8838397 C2.52633099,75.8838397 0.000561032864,71.9058838 0.000561032864,61.8086926 L0.000561032864,58.3402956 L8.38912441,58.3402956 L8.38912441,62.4212956 C8.38912441,67.3164574 8.89405399,69.4577368 11.6229178,69.4577368 C14.5537535,69.4577368 15.5647347,67.8260162 15.5647347,63.542325 L15.5647347,61.6048691 C15.5647347,59.2586338 14.4527676,56.9123985 11.9258756,54.2615603 L4.85125117,46.8152074 C2.12238732,43.8575015 0.101546948,41.5123985 0.101546948,37.0237515 L0.101546948,34.0660456 C0.101546948,26.3150897 4.24533568,22.2340897 12.2288333,22.2340897 C20.7195047,22.2340897 23.7513263,26.3150897 23.7513263,35.7996779 L23.7513263,38.247825 Z" id="Fill-1" fill="#FFFFFF"></path>
                    <path d="M39.4169347,23.4586162 L44.6726906,23.4586162 L44.6726906,29.8847191 L39.4169347,29.8847191 L39.4169347,63.6435574 C39.4169347,67.2149985 40.2259441,68.6417632 43.0557939,68.6417632 C43.6617094,68.6417632 44.3697329,68.5409838 45.0766343,68.4379397 L45.0766343,75.4766456 C43.1567798,75.6793368 41.4377751,75.8842926 40.0239723,75.8842926 C32.0393526,75.8842926 30.4213338,71.9052044 30.4213338,61.909925 L30.4213338,29.8847191 L26.3796531,29.8847191 L26.3796531,23.4586162 L30.4213338,23.4586162 L30.4213338,13.4633368 L39.4169347,9.89416029 L39.4169347,23.4586162 Z" id="Fill-3" fill="#FFFFFF"></path>
                    <path d="M73.1742822,74.6599926 L64.6847329,74.6599926 L64.1786812,70.4782132 C62.0568549,74.0473897 59.2270052,75.8840662 55.8922258,75.8840662 C49.6254887,75.8840662 47.3005685,71.8041985 47.3005685,63.1337721 L47.3005685,54.3625662 C47.3005685,45.7951838 52.2533667,42.7355662 64.1786812,42.224875 L64.1786812,36.3105956 C64.1786812,30.9036103 63.5727657,28.6604191 60.3389723,28.6604191 C57.6101085,28.6604191 56.5991272,30.7009191 56.5991272,35.0865221 L56.5991272,37.2278015 L48.3115498,37.2278015 L48.3115498,36.0037279 C48.3115498,26.0084485 51.3433714,22.2343162 60.9448878,22.2343162 C70.1424606,22.2343162 73.1742822,26.2122721 73.1742822,36.0037279 L73.1742822,74.6599926 Z M56.3971554,55.3828162 L56.3971554,61.9096985 C56.3971554,66.9079044 57.2061648,69.3560515 60.3389723,69.3560515 C63.3707939,69.3560515 64.1786812,67.0098162 64.1786812,61.9096985 L64.1786812,48.5490662 C58.3170099,48.8548015 56.3971554,50.2838309 56.3971554,55.3828162 L56.3971554,55.3828162 Z" id="Fill-6" fill="#FFFFFF"></path>
                    <path d="M94.1965202,6.52756176 L93.0845531,6.52756176 C90.0527315,6.52756176 89.0417502,7.34398824 89.0417502,10.3016941 L89.0417502,23.4585029 L93.6915906,23.4585029 L93.6915906,29.8846059 L89.0417502,29.8846059 L89.0417502,74.6601059 L80.1482573,74.6601059 L80.1482573,29.8846059 L76.6115061,29.8846059 L76.6115061,23.4585029 L80.1482573,23.4585029 L80.1482573,13.8708706 C80.1482573,3.56985588 81.3612103,-0.000452941176 90.8617408,-0.000452941176 C91.8716,-0.000452941176 92.9835671,-0.000452941176 94.1965202,0.101458824 L94.1965202,6.52756176 Z" id="Fill-8" fill="#FFFFFF"></path>
                    <path d="M110.57004,6.52756176 L109.458073,6.52756176 C106.426251,6.52756176 105.41527,7.34398824 105.41527,10.3016941 L105.41527,23.4585029 L110.06511,23.4585029 L110.06511,29.8846059 L105.41527,29.8846059 L105.41527,74.6601059 L96.521777,74.6601059 L96.521777,29.8846059 L92.9850258,29.8846059 L92.9850258,23.4585029 L96.521777,23.4585029 L96.521777,13.8708706 C96.521777,3.56985588 97.73473,-0.000452941176 107.235261,-0.000452941176 C108.24512,-0.000452941176 109.357087,-0.000452941176 110.57004,0.101458824 L110.57004,6.52756176 Z" id="Fill-10" fill="#FFFFFF"></path>
                    <path d="M122.193407,23.4586162 L127.449162,23.4586162 L127.449162,29.8847191 L122.193407,29.8847191 L122.193407,63.6435574 C122.193407,67.2149985 123.002416,68.6417632 125.831144,68.6417632 C126.438181,68.6417632 127.143961,68.5409838 127.851984,68.4379397 L127.851984,75.4766456 C125.93213,75.6793368 124.214247,75.8842926 122.7982,75.8842926 C114.815824,75.8842926 113.197806,71.9052044 113.197806,61.909925 L113.197806,29.8847191 L109.156125,29.8847191 L109.156125,23.4586162 L113.197806,23.4586162 L113.197806,13.4633368 L122.193407,9.89416029 L122.193407,23.4586162 Z" id="Fill-12" fill="#A4CDF1"></path>
                    <path d="M148.77447,30.5977618 L148.369405,30.5977618 C141.901818,30.5977618 139.878733,33.1478206 139.878733,40.0834824 L139.878733,74.6598794 L130.98524,74.6598794 L130.98524,23.4582765 L139.475912,23.4582765 L139.878733,27.6411882 C142.002804,24.3766147 144.529696,22.6429824 147.663625,22.6429824 C148.066447,22.6429824 148.369405,22.7437618 148.77447,22.7437618 L148.77447,30.5977618 Z" id="Fill-15" fill="#A4CDF1"></path>
                    <path d="M175.557282,74.6599926 L167.067732,74.6599926 L166.560559,70.4782132 C164.439854,74.0473897 161.610005,75.8840662 158.275225,75.8840662 C152.00961,75.8840662 149.683568,71.8041985 149.683568,63.1337721 L149.683568,54.3625662 C149.683568,45.7951838 154.636366,42.7355662 166.560559,42.224875 L166.560559,36.3105956 C166.560559,30.9036103 165.955765,28.6604191 162.721972,28.6604191 C159.993108,28.6604191 158.983249,30.7009191 158.983249,35.0865221 L158.983249,37.2278015 L150.696793,37.2278015 L150.696793,36.0037279 C150.696793,26.0084485 153.727493,22.2343162 163.329009,22.2343162 C172.526582,22.2343162 175.557282,26.2122721 175.557282,36.0037279 L175.557282,74.6599926 Z M158.781277,55.3828162 L158.781277,61.9096985 C158.781277,66.9079044 159.590286,69.3560515 162.721972,69.3560515 C165.754915,69.3560515 166.560559,67.0098162 166.560559,61.9096985 L166.560559,48.5490662 C160.701131,48.8548015 158.781277,50.2838309 158.781277,55.3828162 L158.781277,55.3828162 Z" id="Fill-17" fill="#A4CDF1"></path>
                    <path d="M206.687985,40.2880985 L197.693507,40.2880985 L197.693507,36.1063191 C197.693507,31.1092456 197.086469,28.7618779 194.154511,28.7618779 C191.526633,28.7618779 191.020582,31.210025 191.020582,36.3101426 L191.020582,61.8084662 C191.020582,66.9085838 191.526633,69.4586426 194.358727,69.4586426 C197.185211,69.4586426 197.591399,66.8066721 197.591399,61.8084662 L197.591399,56.8113926 L206.687985,56.8113926 L206.687985,60.7882162 C206.687985,70.8854074 202.745046,75.7817015 194.255497,75.7817015 C184.248915,75.7817015 181.825253,70.6827162 181.825253,58.3400691 L181.825253,39.7785397 C181.825253,27.4358926 184.352145,22.2349956 194.358727,22.2349956 C202.846032,22.2349956 206.687985,27.1312897 206.687985,37.3303926 L206.687985,40.2880985 Z" id="Fill-19" fill="#A4CDF1"></path>
                    <polygon id="Fill-21" fill="#A4CDF1" points="220.737931 1.22407353 220.737931 45.1831471 229.73241 23.4589559 237.91788 23.4589559 228.618199 45.5919265 238.828997 74.6605588 230.034246 74.6605588 220.737931 47.1206029 220.737931 74.6605588 211.945424 74.6605588 211.945424 1.22407353"></polygon>
                </g>
            </g>
        </g>
    </g>
</svg>