<?xml version="1.0" encoding="UTF-8"?>
<svg width="136px" height="48px" viewBox="0 0 136 48" version="1.1" xmlns="http://www.w3.org/2000/svg" xmlns:xlink="http://www.w3.org/1999/xlink">
    <!-- Generator: Sketch 47.1 (45422) - http://www.bohemiancoding.com/sketch -->
    <title>stafftrack-shadow</title>
    <desc>Created with Sketch.</desc>
    <defs></defs>
    <g id="Symbols" stroke="none" stroke-width="1" fill="none" fill-rule="evenodd">
        <g id="Nav/Top/Top-Nav" transform="translate(-18.000000, -12.000000)">
            <g id="stafftrack-shadow" transform="translate(18.000000, 12.000000)">
                <polygon id="Path-2" fill="#161F5B" points="1 29.8785916 19.2146329 48 135.143488 48 99.4718912 9.7964409 92.1954086 19.3296103 91.3106566 16.9636036 84.762374 10.4153211 80.221676 10.6339901 77.855054 15.2347933 78.6413924 16.9636036 71.953021 10.2752322 65.3225181 11.1909099 64.205302 11.5593236 62.2202545 9.57427619 60.7559071 10.6339901 57.030252 11.8754777 56.4907749 12.9161428 53.3138854 9.73925326 48.0909303 10.0600385 50.7218517 4.62023437 46.1634864 0.0618690843 42.0940628 2.85766098 39.3377038 0.101301988 35.691268 2.75635899 34.8898788 15.9692771 28.9826834 10.0620818 21.7014503 11.1909099 21.7014503 11.8754777 21.4688038 12.709643 18.5556017 9.7964409 13.7831347 13.2369281 13.7831347 15.9692771 8.49560669 10.6817491 3.50685344 11.1909099 1.82407613 13.2369281 4.30712486 16.6332124 7.76183898 21.8317305 7.76183898 27.3206662 6.83864865 28.8692714"></polygon>
                <g id="Logos/staff-management-logo-white">
                    <path d="M9.93779343,15.8952 L6.34342723,15.8952 L6.34342723,14.7930824 C6.34342723,12.8010824 6.21619718,11.9107294 5.03215962,11.9107294 C4.10211268,11.9107294 3.7213615,12.5041412 3.7213615,14.0726118 L3.7213615,14.8777882 C3.7213615,15.6410824 4.27112676,16.4886118 5.28615023,17.5907294 L8.33075117,20.8119059 C9.55704225,22.1262588 10.2335681,23.3130824 10.2335681,24.6269647 L10.2335681,26.3224941 C10.2335681,29.8406118 8.54201878,31.5361412 5.03215962,31.5361412 C1.05704225,31.5361412 0.000234741784,29.8829647 0.000234741784,25.6867294 L0.000234741784,24.2453176 L3.5100939,24.2453176 L3.5100939,25.9413176 C3.5100939,27.9756706 3.7213615,28.8655529 4.86314554,28.8655529 C6.08943662,28.8655529 6.51244131,28.1874353 6.51244131,26.4072 L6.51244131,25.6020235 C6.51244131,24.6269647 6.0471831,23.6519059 4.9899061,22.5502588 L2.02981221,19.4556706 C0.888028169,18.2264941 0.0424882629,17.2519059 0.0424882629,15.3864941 L0.0424882629,14.1573176 C0.0424882629,10.9361412 1.77629108,9.24014118 5.11666667,9.24014118 C8.66924883,9.24014118 9.93779343,10.9361412 9.93779343,14.8777882 L9.93779343,15.8952 Z" id="Fill-1" fill="#FFFFFF"></path>
                    <path d="M16.4924413,9.74903529 L18.6915023,9.74903529 L18.6915023,12.4196235 L16.4924413,12.4196235 L16.4924413,26.4492706 C16.4924413,27.9335059 16.830939,28.5264471 18.0149765,28.5264471 C18.2684977,28.5264471 18.5647418,28.4845647 18.8605164,28.4417412 L18.8605164,31.3669176 C18.05723,31.4511529 17.3379812,31.5363294 16.7464319,31.5363294 C13.4055869,31.5363294 12.7285915,29.8826824 12.7285915,25.7288 L12.7285915,12.4196235 L11.0375117,12.4196235 L11.0375117,9.74903529 L12.7285915,9.74903529 L12.7285915,5.59515294 L16.4924413,4.11185882 L16.4924413,9.74903529 Z" id="Fill-3" fill="#FFFFFF"></path>
                    <path d="M30.6168545,31.0275294 L27.0647418,31.0275294 L26.8530047,29.2896471 C25.9652113,30.7729412 24.7811737,31.5362353 23.3858685,31.5362353 C20.7638028,31.5362353 19.7910329,29.8407059 19.7910329,26.2374118 L19.7910329,22.5922353 C19.7910329,19.0317647 21.8633333,17.7602353 26.8530047,17.548 L26.8530047,15.0901176 C26.8530047,12.8430588 26.5994836,11.9108235 25.2464319,11.9108235 C24.1046479,11.9108235 23.6816432,12.7588235 23.6816432,14.5814118 L23.6816432,15.4712941 L20.2140376,15.4712941 L20.2140376,14.9625882 C20.2140376,10.8087059 21.4825822,9.24023529 25.4999531,9.24023529 C29.3483099,9.24023529 30.6168545,10.8934118 30.6168545,14.9625882 L30.6168545,31.0275294 Z M23.5971362,23.0162353 L23.5971362,25.7287059 C23.5971362,27.8058824 23.9356338,28.8232941 25.2464319,28.8232941 C26.5149765,28.8232941 26.8530047,27.8482353 26.8530047,25.7287059 L26.8530047,20.1762353 C24.4004225,20.3032941 23.5971362,20.8971765 23.5971362,23.0162353 L23.5971362,23.0162353 Z" id="Fill-6" fill="#FFFFFF"></path>
                    <path d="M39.41277,2.71275294 L38.9475117,2.71275294 C37.6789671,2.71275294 37.2559624,3.05204706 37.2559624,4.28122353 L37.2559624,9.74898824 L39.2015023,9.74898824 L39.2015023,12.4195765 L37.2559624,12.4195765 L37.2559624,31.0275765 L33.5348357,31.0275765 L33.5348357,12.4195765 L32.0550235,12.4195765 L32.0550235,9.74898824 L33.5348357,9.74898824 L33.5348357,5.76451765 C33.5348357,1.48357647 34.0423474,-0.000188235294 38.0174648,-0.000188235294 C38.44,-0.000188235294 38.9052582,-0.000188235294 39.41277,0.0421647059 L39.41277,2.71275294 Z" id="Fill-8" fill="#FFFFFF"></path>
                    <path d="M46.263615,2.71275294 L45.7983568,2.71275294 C44.5298122,2.71275294 44.1068075,3.05204706 44.1068075,4.28122353 L44.1068075,9.74898824 L46.0523474,9.74898824 L46.0523474,12.4195765 L44.1068075,12.4195765 L44.1068075,31.0275765 L40.3856808,31.0275765 L40.3856808,12.4195765 L38.9058685,12.4195765 L38.9058685,9.74898824 L40.3856808,9.74898824 L40.3856808,5.76451765 C40.3856808,1.48357647 40.8931925,-0.000188235294 44.8683099,-0.000188235294 C45.2908451,-0.000188235294 45.7561033,-0.000188235294 46.263615,0.0421647059 L46.263615,2.71275294 Z" id="Fill-10" fill="#FFFFFF"></path>
                    <path d="M51.1269484,9.74903529 L53.3260094,9.74903529 L53.3260094,12.4196235 L51.1269484,12.4196235 L51.1269484,26.4492706 C51.1269484,27.9335059 51.465446,28.5264471 52.6490141,28.5264471 C52.9030047,28.5264471 53.1983099,28.4845647 53.494554,28.4417412 L53.494554,31.3669176 C52.6912676,31.4511529 51.9724883,31.5363294 51.38,31.5363294 C48.0400939,31.5363294 47.3630986,29.8826824 47.3630986,25.7288 L47.3630986,12.4196235 L45.6720188,12.4196235 L45.6720188,9.74903529 L47.3630986,9.74903529 L47.3630986,5.59515294 L51.1269484,4.11185882 L51.1269484,9.74903529 Z" id="Fill-12" fill="#A4CDF1"></path>
                    <path d="M62.2487324,12.7159529 L62.0792488,12.7159529 C59.3731455,12.7159529 58.5266667,13.7757176 58.5266667,16.6580706 L58.5266667,31.0274824 L54.8055399,31.0274824 L54.8055399,9.74889412 L58.3581221,9.74889412 L58.5266667,11.4872471 C59.4153991,10.1305412 60.4726761,9.41007059 61.7839437,9.41007059 C61.9524883,9.41007059 62.0792488,9.45195294 62.2487324,9.45195294 L62.2487324,12.7159529 Z" id="Fill-15" fill="#A4CDF1"></path>
                    <path d="M73.4549296,31.0275294 L69.9028169,31.0275294 L69.6906103,29.2896471 C68.8032864,30.7729412 67.6192488,31.5362353 66.2239437,31.5362353 C63.6023474,31.5362353 62.629108,29.8407059 62.629108,26.2374118 L62.629108,22.5922353 C62.629108,19.0317647 64.7014085,17.7602353 69.6906103,17.548 L69.6906103,15.0901176 C69.6906103,12.8430588 69.4375587,11.9108235 68.084507,11.9108235 C66.942723,11.9108235 66.5201878,12.7588235 66.5201878,14.5814118 L66.5201878,15.4712941 L63.0530516,15.4712941 L63.0530516,14.9625882 C63.0530516,10.8087059 64.3211268,9.24023529 68.3384977,9.24023529 C72.1868545,9.24023529 73.4549296,10.8934118 73.4549296,14.9625882 L73.4549296,31.0275294 Z M66.4356808,23.0162353 L66.4356808,25.7287059 C66.4356808,27.8058824 66.7741784,28.8232941 68.084507,28.8232941 C69.3535211,28.8232941 69.6906103,27.8482353 69.6906103,25.7287059 L69.6906103,20.1762353 C67.2389671,20.3032941 66.4356808,20.8971765 66.4356808,23.0162353 L66.4356808,23.0162353 Z" id="Fill-17" fill="#A4CDF1"></path>
                    <path d="M86.4803286,16.7431059 L82.7169484,16.7431059 L82.7169484,15.0052235 C82.7169484,12.9285176 82.4629577,11.9529882 81.2361972,11.9529882 C80.1366667,11.9529882 79.9249296,12.9704 79.9249296,15.0899294 L79.9249296,25.6866353 C79.9249296,27.8061647 80.1366667,28.8659294 81.3216432,28.8659294 C82.5042723,28.8659294 82.6742254,27.7638118 82.6742254,25.6866353 L82.6742254,23.6099294 L86.4803286,23.6099294 L86.4803286,25.2626353 C86.4803286,29.4588706 84.8305634,31.4936941 81.2784507,31.4936941 C77.0915962,31.4936941 76.0775117,29.3746353 76.0775117,24.2452235 L76.0775117,16.5313412 C76.0775117,11.4019294 77.1347887,9.24051765 81.3216432,9.24051765 C84.8728169,9.24051765 86.4803286,11.2753412 86.4803286,15.5139294 L86.4803286,16.7431059 Z" id="Fill-19" fill="#A4CDF1"></path>
                    <polygon id="Fill-21" fill="#A4CDF1" points="92.3589671 0.508705882 92.3589671 18.7774118 96.1223474 9.74917647 99.54723 9.74917647 95.6561502 18.9472941 99.9284507 31.0277647 96.2486385 31.0277647 92.3589671 19.5825882 92.3589671 31.0277647 88.6800939 31.0277647 88.6800939 0.508705882"></polygon>
                </g>
            </g>
        </g>
    </g>
</svg>