<?xml version="1.0" encoding="UTF-8"?>
<svg width="24px" height="24px" viewBox="0 0 24 24" version="1.1" xmlns="http://www.w3.org/2000/svg" xmlns:xlink="http://www.w3.org/1999/xlink">
    <!-- Generator: Sketch 47.1 (45422) - http://www.bohemiancoding.com/sketch -->
    <title>Nav/Icons/analytics-active</title>
    <desc>Created with Sketch.</desc>
    <defs></defs>
    <g id="Symbols" stroke="none" stroke-width="1" fill="none" fill-rule="evenodd">
        <g id="Nav/Icons/analytics-active">
            <rect id="Rectangle" x="0" y="0" width="24" height="24"></rect>
            <path d="M14,2 C12.894531,2 12,2.894531 12,4 C12,4.183594 12.015625,4.363281 12.0625,4.53125 L9.9375,6.25 C9.65625,6.101563 9.339844,6 9,6 C8.34375,6 7.769531,6.320313 7.40625,6.8125 L5.9375,6.5 C5.714844,5.636719 4.933594,5 4,5 C2.894531,5 2,5.894531 2,7 C2,8.105469 2.894531,9 4,9 C4.707031,9 5.332031,8.644531 5.6875,8.09375 L7.03125,8.375 C7.207031,9.300781 8.023438,10 9,10 C10.105469,10 11,9.105469 11,8 C11,7.816406 10.984375,7.636719 10.9375,7.46875 L13.0625,5.78125 C13.339844,5.925781 13.664063,6 14,6 C14.324219,6 14.632813,5.917969 14.90625,5.78125 L18.09375,8.4375 C18.039063,8.617188 18,8.804688 18,9 C18,10.105469 18.894531,11 20,11 C21.105469,11 22,10.105469 22,9 C22,7.894531 21.105469,7 20,7 C19.675781,7 19.367188,7.082031 19.09375,7.21875 L15.90625,4.5625 C15.960938,4.382813 16,4.195313 16,4 C16,2.894531 15.105469,2 14,2 Z M12,12 L12,22 L16,22 L16,12 L12,12 Z M17,15 L17,22 L21,22 L21,15 L17,15 Z M2,16 L2,22 L6,22 L6,16 L2,16 Z M7,17 L7,22 L11,22 L11,17 L7,17 Z" id="Shape" fill="#2262A9" fill-rule="nonzero"></path>
        </g>
    </g>
</svg>