<?xml version="1.0" encoding="UTF-8"?>
<svg width="24px" height="24px" viewBox="0 0 24 24" version="1.1" xmlns="http://www.w3.org/2000/svg" xmlns:xlink="http://www.w3.org/1999/xlink">
    <!-- Generator: Sketch 47.1 (45422) - http://www.bohemiancoding.com/sketch -->
    <title>Nav/Icons/scheduling-active</title>
    <desc>Created with Sketch.</desc>
    <defs></defs>
    <g id="Symbols" stroke="none" stroke-width="1" fill="none" fill-rule="evenodd">
        <g id="Nav/Icons/scheduling-active">
            <g id="Group">
                <rect id="Rectangle" x="0" y="0" width="24" height="24"></rect>
            </g>
            <path d="M9,11 L7,11 L7,13 L9,13 L9,11 L9,11 Z M13,11 L11,11 L11,13 L13,13 L13,11 L13,11 Z M17,11 L15,11 L15,13 L17,13 L17,11 L17,11 Z M19,4 L18,4 L18,2 L16,2 L16,4 L8,4 L8,2 L6,2 L6,4 L5,4 C3.89,4 3,4.9 3,6 L3,20 C3,21.1045695 3.8954305,22 5,22 L19,22 C20.1045695,22 21,21.1045695 21,20 L21,6 C21,4.8954305 20.1045695,4 19,4 L19,4 Z M19,20 L5,20 L5,9 L19,9 L19,20 Z" id="Shape" fill="#2262A9" fill-rule="nonzero"></path>
        </g>
    </g>
</svg>