<?xml version="1.0" encoding="UTF-8"?>
<svg width="24px" height="24px" viewBox="0 0 24 24" version="1.1" xmlns="http://www.w3.org/2000/svg" xmlns:xlink="http://www.w3.org/1999/xlink">
    <!-- Generator: Sketch 47.1 (45422) - http://www.bohemiancoding.com/sketch -->
    <title>Nav/Icons/system-active</title>
    <desc>Created with Sketch.</desc>
    <defs></defs>
    <g id="Symbols" stroke="none" stroke-width="1" fill="none" fill-rule="evenodd">
        <g id="Nav/Icons/system-active">
            <rect id="Rectangle" x="0" y="0" width="24" height="24"></rect>
            <path d="M19.1386665,13 C19.1386665,12.699219 19.2402285,12.300781 19.2402285,12 C19.2402285,11.699219 19.2402285,11.300781 19.1386665,11 L21.2402285,9.5 C21.4394475,9.398438 21.5410095,9.101563 21.3417915,8.800781 L19.3417915,5.300781 C19.2402285,5 18.9394475,4.898438 18.7402285,5 L16.3417915,6.101563 C15.8417915,5.699219 15.1386665,5.300781 14.5410095,5.101563 L14.2402285,2.5 C14.2402285,2.199219 14.0410095,2 13.7402285,2 L9.74022854,2 C9.43944754,2 9.24022854,2.199219 9.24022854,2.5 L8.93944754,5 C8.24022854,5.300781 7.63866654,5.601563 7.13866654,6 L4.74022854,5 C4.54100954,4.898438 4.24022854,5 4.13866654,5.199219 L2.13866654,8.699219 C1.93944754,9 1.93944754,9.300781 2.24022854,9.398438 L4.34179154,11 C4.34179154,11.300781 4.24022854,11.699219 4.24022854,12 C4.24022854,12.300781 4.24022854,12.699219 4.34179154,13 L2.24022854,14.5 C2.04100954,14.601563 1.93944754,14.898438 2.13866654,15.199219 L4.13866654,18.699219 C4.24022854,19 4.54100954,19.101563 4.74022854,19 L7.13866654,17.898438 C7.63866654,18.300781 8.34179154,18.699219 8.93944754,18.898438 L9.24022854,21.5 C9.24022854,21.800781 9.43944754,22 9.74022854,22 L13.7402285,22 C14.0410095,22 14.2402285,21.800781 14.2402285,21.5 L14.5410095,18.898438 C15.2402285,18.601563 15.8417915,18.300781 16.3417915,17.898438 L18.7402285,19 C18.9394475,19.101563 19.2402285,19 19.3417915,18.800781 L21.3417915,15.300781 C21.4394475,15.101563 21.4394475,14.800781 21.2402285,14.601563 L19.1386665,13 Z M11.7402285,16 C9.54100954,16 7.74022854,14.199219 7.74022854,12 C7.74022854,9.800781 9.54100954,8 11.7402285,8 C13.9394475,8 15.7402285,9.800781 15.7402285,12 C15.7402285,14.199219 13.9394475,16 11.7402285,16 Z" id="Shape" fill="#2262A9" fill-rule="nonzero"></path>
        </g>
    </g>
</svg>