<?xml version="1.0" encoding="UTF-8"?>
<svg width="24px" height="24px" viewBox="0 0 24 24" version="1.1" xmlns="http://www.w3.org/2000/svg" xmlns:xlink="http://www.w3.org/1999/xlink">
    <title>Nav/Icons/associate-active</title>
    <desc>Associate menu item icon</desc>
    <g id="Symbols" stroke="none" stroke-width="1" fill="none" fill-rule="evenodd">
        <g id="Nav/Icons/associate-active">
            <g id="Group">
                <rect id="Rectangle" x="0" y="0" width="24" height="24"></rect>
            </g>
            <path d="M19,4 L14.82,4 C14.4,2.84 13.3,2 12,2 C10.7,2 9.6,2.84 9.18,4 L5,4 C3.896,4 3,4.896 3,6 L3,20 C3,21.104 3.896,22 5,22 L19,22 C20.104,22 21,21.104 21,20 L21,6 C21,4.896 20.104,4 19,4 M12,4 C12.553,4 13,4.448 13,5 C13,5.552 12.553,6 12,6 C11.448,6 11,5.552 11,5 C11,4.448 11.448,4 12,4 M12,8 C13.656,8 15,9.343 15,11 C15,12.657 13.656,14 12,14 C10.343,14 9,12.657 9,11 C9,9.343 10.343,8 12,8 M18,20 L6,20 L6,18.6 C6,16.6 10,15.5 12,15.5 C14,15.5 18,16.6 18,18.6" id="Page-1" fill="#2262A9"></path>
        </g>
    </g>
</svg>