<?xml version="1.0" encoding="UTF-8"?>
<svg width="24px" height="24px" viewBox="0 0 24 24" version="1.1" xmlns="http://www.w3.org/2000/svg" xmlns:xlink="http://www.w3.org/1999/xlink">
    <title>Nav/Icons/crewdesk</title>
    <desc>CrewDesk menu item icon</desc>
    <g id="Symbols" stroke="none" stroke-width="1" fill="none" fill-rule="evenodd">
        <g id="Nav/Icons/crewdesk">
            <g id="Group">
                <rect id="Rectangle" x="0" y="0" width="24" height="24"></rect>
                <path d="M12,5 C10.300781,5 9,6.300781 9,8 C9,9.699219 10.300781,11 12,11 C13.699219,11 15,9.699219 15,8 C15,6.300781 13.699219,5 12,5 Z M5.5,7 C4.121094,7 3,8.121094 3,9.5 C3,10.878906 4.121094,12 5.5,12 C6.878906,12 8,10.878906 8,9.5 C8,8.121094 6.878906,7 5.5,7 Z M18.5,7 C17.121094,7 16,8.121094 16,9.5 C16,10.878906 17.121094,12 18.5,12 C19.878906,12 21,10.878906 21,9.5 C21,8.121094 19.878906,7 18.5,7 Z M12,13 C7.398438,13 6,16.3125 6,16.3125 L6,14 L5.5,14 C2,14 1,16.6875 1,16.6875 L1,19 L23,19 L23,16.6875 C23,16.6875 22,14 18.5,14 L18,14 L18,16.3125 C18,16.3125 16.601563,13 12,13 Z" id="Shape" fill="#FFFFFF" fill-rule="nonzero"></path>
            </g>
        </g>
    </g>
</svg>