<?xml version="1.0" encoding="UTF-8"?>
<svg width="24px" height="24px" viewBox="0 0 24 24" version="1.1" xmlns="http://www.w3.org/2000/svg" xmlns:xlink="http://www.w3.org/1999/xlink">
    <!-- Generator: Sketch 47.1 (45422) - http://www.bohemiancoding.com/sketch -->
    <title>Icons/actions</title>
    <desc>Created with Sketch.</desc>
    <defs></defs>
    <g id="Symbols" stroke="none" stroke-width="1" fill="none" fill-rule="evenodd">
        <g id="Icons/actions">
            <g id="Group">
                <rect id="Rectangle-2" x="0" y="0" width="24" height="24"></rect>
            </g>
            <path d="M12.6,2.86 C15.27,4.1 18,5.39 20.66,6.63 C20.81,6.7 21,6.75 21,6.95 C21,7.15 20.81,7.19 20.66,7.26 C18,8.5 15.3,9.77 12.62,11 C12.21,11.21 11.79,11.21 11.38,11 C8.69,9.76 6,8.5 3.32,7.25 C3.18,7.19 3,7.14 3,6.94 C3,6.76 3.18,6.71 3.31,6.65 C6,5.39 8.74,4.1 11.44,2.85 C11.73,2.72 12.3,2.73 12.6,2.86 L12.6,2.86 Z M12,21.15 C11.8,21.15 11.66,21.07 11.38,20.97 C8.69,19.73 6,18.47 3.33,17.22 C3.19,17.15 3,17.11 3,16.9 C3,16.7 3.19,16.66 3.34,16.59 C3.78,16.38 4.23,16.17 4.67,15.96 C5.12,15.76 5.56,15.76 6,15.97 C7.79,16.8 9.57,17.63 11.35,18.46 C11.79,18.67 12.23,18.66 12.67,18.46 C14.45,17.62 16.23,16.79 18,15.96 C18.44,15.76 18.87,15.75 19.29,15.95 C19.77,16.16 20.24,16.39 20.71,16.61 C20.78,16.64 20.85,16.68 20.91,16.73 C21.04,16.83 21.04,17 20.91,17.08 C20.83,17.14 20.74,17.19 20.65,17.23 C18,18.5 15.33,19.72 12.66,20.95 C12.46,21.05 12.19,21.15 12,21.15 L12,21.15 Z M12,16.17 C11.9,16.17 11.55,16.07 11.36,16 C8.68,14.74 6,13.5 3.34,12.24 C3.2,12.18 3,12.13 3,11.93 C3,11.72 3.2,11.68 3.35,11.61 C3.8,11.39 4.25,11.18 4.7,10.97 C5.13,10.78 5.56,10.78 6,11 C7.78,11.82 9.58,12.66 11.38,13.5 C11.79,13.69 12.21,13.69 12.63,13.5 C14.43,12.65 16.23,11.81 18.04,10.97 C18.45,10.78 18.87,10.78 19.29,10.97 C19.76,11.19 20.24,11.41 20.71,11.63 C20.77,11.66 20.84,11.69 20.9,11.74 C21.04,11.85 21.04,12 20.89,12.12 C20.84,12.16 20.77,12.19 20.71,12.22 C18,13.5 15.31,14.75 12.61,16 C12.42,16.09 12.08,16.17 12,16.17 Z" id="Shape" fill="#FFFFFF" fill-rule="nonzero"></path>
        </g>
    </g>
</svg>