<?xml version="1.0" encoding="UTF-8"?>
<svg width="24px" height="24px" viewBox="0 0 24 24" version="1.1" xmlns="http://www.w3.org/2000/svg" xmlns:xlink="http://www.w3.org/1999/xlink">
    <!-- Generator: Sketch 47.1 (45422) - http://www.bohemiancoding.com/sketch -->
    <title>Icons/location</title>
    <desc>Created with Sketch.</desc>
    <defs></defs>
    <g id="Symbols" stroke="none" stroke-width="1" fill="none" fill-rule="evenodd">
        <g id="Icons/location">
            <rect id="Rectangle" x="0" y="0" width="24" height="24"></rect>
            <path d="M12,20 C7.581722,20 4,16.418278 4,12 C4,7.581722 7.581722,4 12,4 C14.1217319,4 16.1565632,4.84285472 17.6568542,6.34314575 C19.1571453,7.84343678 20,9.87826808 20,12 C20,16.418278 16.418278,20 12,20 L12,20 Z M12,2 C6.4771525,2 2,6.4771525 2,12 C2,14.6521649 3.0535684,17.195704 4.92893219,19.0710678 C6.80429597,20.9464316 9.3478351,22 12,22 C14.6521649,22 17.195704,20.9464316 19.0710678,19.0710678 C20.9464316,17.195704 22,14.6521649 22,12 C22,9.3478351 20.9464316,6.80429597 19.0710678,4.92893219 C17.195704,3.0535684 14.6521649,2 12,2 L12,2 Z M12,12.5 C11.1715729,12.5 10.5,11.8284271 10.5,11 C10.5,10.1715729 11.1715729,9.5 12,9.5 C12.8284271,9.5 13.5,10.1715729 13.5,11 C13.5,11.8284271 12.8284271,12.5 12,12.5 L12,12.5 Z M12,7.2 C9.9,7.2 8.2,8.9 8.2,11 C8.2,14 12,17.5 12,17.5 C12,17.5 15.8,14 15.8,11 C15.8,8.9 14.1,7.2 12,7.2 Z" id="Shape" fill="#1589EE" fill-rule="nonzero"></path>
        </g>
    </g>
</svg>