<?xml version="1.0" encoding="UTF-8"?>
<svg width="24px" height="24px" viewBox="0 0 24 24" version="1.1" xmlns="http://www.w3.org/2000/svg" xmlns:xlink="http://www.w3.org/1999/xlink">
    <!-- Generator: Sketch 47.1 (45422) - http://www.bohemiancoding.com/sketch -->
    <title>Icons/modal</title>
    <desc>Created with Sketch.</desc>
    <defs></defs>
    <g id="Symbols" stroke="none" stroke-width="1" fill="none" fill-rule="evenodd">
        <g id="Icons/modal">
            <rect id="Rectangle" x="0" y="0" width="24" height="24"></rect>
            <path d="M13.6542464,5 L13.6542464,6.52735817 L16.3958543,6.52735817 L8.88888889,14.0343236 L9.9656764,15.1111111 L17.4726418,7.60414569 L17.4726418,10.3457536 L19,10.3457536 L19,5 L13.6542464,5 Z M17.4444444,17.4444444 L6.55555556,17.4444444 L6.55555556,6.55555556 L12,6.55555556 L12,5 L6.55555556,5 C5.69222222,5 5,5.69222222 5,6.55555556 L5,17.4444444 C5,18.3035541 5.69644594,19 6.55555556,19 L17.4444444,19 C18.3035541,19 19,18.3035541 19,17.4444444 L19,12 L17.4444444,12 L17.4444444,17.4444444 Z" id="Shape" fill="#1589EE" fill-rule="nonzero"></path>
        </g>
    </g>
</svg>