<?xml version="1.0" encoding="UTF-8"?>
<svg width="24px" height="24px" viewBox="0 0 24 24" version="1.1" xmlns="http://www.w3.org/2000/svg" xmlns:xlink="http://www.w3.org/1999/xlink">
    <!-- Generator: Sketch 47.1 (45422) - http://www.bohemiancoding.com/sketch -->
    <title>Icons/user-icon</title>
    <desc>Created with Sketch.</desc>
    <defs></defs>
    <g id="Symbols" stroke="none" stroke-width="1" fill="none" fill-rule="evenodd">
        <g id="Icons/user-icon">
            <rect id="Rectangle" x="0" y="0" width="24" height="24"></rect>
            <g id="Group-3" transform="translate(2.000000, 2.000000)" fill-rule="nonzero" fill="#FFFFFF">
                <path d="M10,5 C11.6568542,5 13,6.34314575 13,8 C13,9.65685425 11.6568542,11 10,11 C8.34314575,11 7,9.65685425 7,8 C7,6.34314575 8.34314575,5 10,5 L10,5 Z M10,12.5 C13.315,12.5 16,13.8425 16,15.5 L16,17 L10,18.8054375 L4,17 L4,15.5 C4,13.8425 6.685,12.5 10,12.5 Z" id="Shape"></path>
                <path d="M10,18 C5.581722,18 2,14.418278 2,10 C2,5.581722 5.581722,2 10,2 C12.1217319,2 14.1565632,2.84285472 15.6568542,4.34314575 C17.1571453,5.84343678 18,7.87826808 18,10 C18,14.418278 14.418278,18 10,18 L10,18 Z M10,4.4408921e-16 C4.4771525,-1.77635684e-15 4.4408921e-16,4.4771525 0,10 C-1.33226763e-15,12.6521649 1.0535684,15.195704 2.92893219,17.0710678 C4.80429597,18.9464316 7.3478351,20 10,20 C12.6521649,20 15.195704,18.9464316 17.0710678,17.0710678 C18.9464316,15.195704 20,12.6521649 20,10 C20,7.3478351 18.9464316,4.80429597 17.0710678,2.92893219 C15.195704,1.0535684 12.6521649,2.22044605e-16 10,0 L10,4.4408921e-16 Z" id="Shape"></path>
            </g>
        </g>
    </g>
</svg>